# xmcd
#
# Track frame offsets:
#	150
#	3556
#	16845
#	31542
#	46980
#	57250
#	72046
#	86254
#	103525
#	112566
#	124189
#	135136
#	147654
#
# Disc length: 2176 seconds
#
# Revision: 1
# Processed by: cddbd v1.5.2PL0 Copyright (c) Steve Scherf et al.
# Submitted via: audiograbber 1.83.01
#
DISCID=94087e0d
DTITLE=Southpaw Bluegrass Band - Southpaw Bluegrass Band
DYEAR=2008
DGENRE=Bluegrass
TTITLE0=Jackrabbit Starts
TTITLE1=Soper's Mill
TTITLE2=North Country Winds
TTITLE3=Life After Headlights
TTITLE4=Chump Change
TTITLE5=Aloneaphobic
TTITLE6=Long Lonesome Driftin' Man
TTITLE7=A Minor Song
TTITLE8=Lazarus Soul
TTITLE9=Close To Mine
TTITLE10=Man's Best Friend
TTITLE11=Mr. Serious
TTITLE12=Slow Train
EXTD=
EXTT0=
EXTT1=
EXTT2=
EXTT3=
EXTT4=
EXTT5=
EXTT6=
EXTT7=
EXTT8=
EXTT9=
EXTT10=
EXTT11=
EXTT12=
PLAYORDER=
